<svg width="500" height="500" xmlns:xlink="http://www.w3.org/1999/xlink" xmlns="http://www.w3.org/2000/svg"><g><circle cx="250" cy="250" r="250" fill="#078d97"></circle></g><g transform="translate(12.50000000000001,12.50000000000001) scale(0.95)"><g transform="scale(0.23272727272727273) translate(0,-320)"><path xmlns="http://www.w3.org/2000/svg" d="M1028 645L990 418 1000 418Q1152 418 1208 569L1208 569Q1208 575 1198 692L1198 692Q1264 721 1321 721L1321 721 1321 806 1312 806Q1249 806 1161 787L1161 787Q1161 799 1038 966L1038 966Q1041 986 1057 986L1057 986 1075 986Q1116 986 1180 938L1180 938Q1303 938 1303 1023L1303 1023 1132 1251Q1172 1288 1757 1487L1757 1487 1795 1496 1795 1534Q1795 1553 1776 1553L1776 1553Q1474 1553 1066 1326L1066 1326Q1048 1336 1038 1336L1038 1336 1038 1354Q1136 1354 1180 1487L1180 1487Q1340 1500 1340 1562L1340 1562 1331 1562Q1161 1598 1161 1629L1161 1629 1161 1657Q1188 1657 1303 1686L1303 1686 1303 1752 1284 1752 1170 1742 1152 1809 1152 1827Q1308 1818 1388 1818L1388 1818 1416 1818Q1511 1830 1511 1856L1511 1856 1511 1866 1501 1912 1482 1912Q1435 1912 1435 1894L1435 1894Q1387 1912 1369 1912L1369 1912Q1271 1903 1255 1894L1255 1894Q1236 1903 1152 1912L1152 1912 1152 2149 1956 2282 1956 2310Q1956 2344 1539 2385L1539 2385Q1435 2367 915 2206L915 2206Q787 2187 640 2187L640 2187 574 2187Q527 2187 432 2197L432 2197Q432 2169 385 2111L385 2111 385 2064Q411 2064 527 1969L527 1969Q480 1817 480 1790L480 1790 480 1695Q360 1724 281 1724L281 1724Q243 1683 243 1647L243 1647 243 1638 536 1572Q567 1591 593 1591L593 1591 593 1544 650 1544Q744 1544 972 1269L972 1269Q917 1222 877 1222L877 1222Q792 1307 716 1307L716 1307 688 1307Q668 1307 668 1288L668 1288 668 1269Q979 920 981 824L981 824 905 824Q773 873 773 909L773 909 773 919Q801 954 801 986L801 986 801 995 782 995Q744 995 622 948L622 948Q552 986 460 1014L460 1014Q429 1014 366 919L366 919 366 881Q421 881 555 853L555 853Q508 672 508 598L508 598Q508 580 527 484L527 484Q574 497 725 796L725 796Q1028 796 1028 673L1028 673 1028 645ZM933 1165L933 1165Q1003 1194 1047 1194L1047 1194Q1141 1089 1141 1042L1141 1042 1038 1042Q933 1075 933 1165ZM337 1146L337 1146 347 1146Q464 1146 583 1288L583 1288 583 1336Q542 1411 499 1439L499 1439 442 1439Q394 1332 337 1146ZM1009 1393L1009 1393Q792 1593 622 1667L622 1667Q565 1805 565 1818L565 1818Q688 1915 688 2017L688 2017 631 2083 688 2083Q886 2083 1066 2131L1066 2131 1038 1932Q910 1969 830 1979L830 1979 792 1912Q987 1866 1047 1866L1047 1866 1047 1771 1019 1771Q958 1771 887 1752L887 1752 887 1704 924 1704Q1047 1704 1047 1676L1047 1676 1047 1610 839 1610 839 1601Q839 1565 1047 1516L1047 1516 1047 1468Q1047 1416 1009 1393Z" fill="#d6d6d6"></path></g></g></svg>